<?xml version="1.0" encoding="utf-8"?>
<!-- Generator: Adobe Illustrator 21.1.0, SVG Export Plug-In . SVG Version: 6.00 Build 0)  -->
<svg version="1.1"
	 id="svg2" xmlns:cc="http://creativecommons.org/ns#" xmlns:dc="http://purl.org/dc/elements/1.1/" xmlns:inkscape="http://www.inkscape.org/namespaces/inkscape" xmlns:rdf="http://www.w3.org/1999/02/22-rdf-syntax-ns#" xmlns:sodipodi="http://sodipodi.sourceforge.net/DTD/sodipodi-0.dtd" xmlns:svg="http://www.w3.org/2000/svg"
	 xmlns="http://www.w3.org/2000/svg" xmlns:xlink="http://www.w3.org/1999/xlink" x="0px" y="0px" viewBox="0 0 512 512"
	 style="enable-background:new 0 0 512 512;" xml:space="preserve">
<style type="text/css">
	.st0{fill:#B3B3B3;stroke:#FFFFFF;stroke-miterlimit:10;}
</style>
<g id="layer1" transform="translate(0,-540.36218)">
	<path id="path3796" class="st0" d="M210.6,693.5c-5,0.3-9.9,0.5-14.9,0.6c-13.3,0.4-26.6,0.2-39.8,0.8c-12.1,0.6-24.2,1.4-36.3,2.7
		c-5.8,0.6-11.6,1.8-17.4,2.5c-5.9,0.8-11.7,1.7-17.6,2.1c-4.6,0.3-8.9,0.6-13.5,0.7c-1.7,0-3.1,0-3.9,1c-1.1,1.3,0.3,4.2-0.7,5.4
		l6.9,3.4c0,0-8.4,5-12.2,8c-3.9,3-7.7,6.2-11.2,9.7c-3.2,3.2-6.3,6.5-9.1,10c-2.4,2.9-6.6,9-6.6,9s-3.3,0-5,0.4
		c-2.4,0.6-6.8,2.2-7.2,2.3c-2,2.8-4,5.7-5.3,8.8c0.1-0.2,0.3-0.4,0.5-0.6c1.4-1.4,3.3-2.1,5.1-2.6c2-0.6,4.2-0.5,6.3-0.5
		c2.2,0,4.4,0.1,6.5,0.6c2.9,0.7,5.8,1.8,8.5,3.1c2.3,1.1,5,1.9,6.5,4c0.8,1.1,1,2.6,0.8,3.9c-0.3,1.5-1.5,2.7-2.4,3.9
		c-3.6,4.8-7.8,9-12,13.2c-2.6,2.6-4.9,5.6-8,7.4c-1.6,0.9-3.4,1.6-5.2,1.8c-1.8,0.2-3.7,0.3-5.3-0.4c-0.8-0.3-1.7-0.9-2.1-1.8
		c-0.5-1.1,0-2.5,0.1-3.7c0.2-1.9,0.7-3.8,0.8-5.8c0.1-1.9,0.1-3.7-0.2-5.6c-0.2-0.9-0.4-1.9-0.8-2.7c-0.4-0.8-1.4-1.2-1.7-2.1
		c-0.1-0.2-0.1-0.4-0.1-0.5c-0.2,2.6-0.1,5.2-0.2,7.8c-0.2,4.1-0.2,8.2-0.7,12.2c-0.1,1-1.4,1.2-2.1,2c-0.7,0.9-1.8,1.9-2.1,3
		c-0.9,3.1-1,7.3-1.2,10.9C6.8,817.7,7,827,6.8,836.2c-0.1,5.9-1.3,5.3-0.6,7.8c0.5,2,2.2,3.5,3.6,5c2.1,2.5,4.4,4.8,6.9,6.9
		c2.3,1.9,4.8,3.8,7.6,5c1.3,0.6,2.7,1,4.1,1.3c-0.2-1.6-0.2-3.2-0.2-4.8c0-26.2,21.3-47.4,47.5-47.4s47.4,21.2,47.4,47.4
		c0,3.7-0.4,7.3-1.2,10.8c1.4,0,2.7,0.1,4.1,0.1c78.9,1.2,132.7,2.9,236.8,4.2c1.6,0,1.3,0,2.8,0c-1.3-4.4-2.1-9-2.1-13.9
		c0-26.2,21.2-47.4,47.4-47.4c26.2,0,47.5,21.2,47.5,47.4c0,5.5-0.9,10.8-2.7,15.7c2.1,0,1.7,0,4,0.1c3.2,0.3,5.6,0,8.4-0.2
		c4-0.3,8-0.8,12-1.7c3.6-0.8,7.4-1.7,10.7-3.4c2.3-1.2,4.4-3,6.3-4.8c0.9-0.9,1.4-2.1,2.3-2.9c0.6-0.6,1.5-0.9,2.1-1.5
		c1.2-1.2,2.3-2.6,2.9-4.2c0.3-0.7,0.6-1.4,0.4-2.1c-0.2-0.8-0.3-0.9-0.6-1.6c-0.4-1-0.5-2.7-0.4-3.7c0.2-5,0.9-9.3,1.4-14.3
		c0.5-4.9,0.6-9.8,0.7-14.7c0-4.5,0.5-9.2-0.4-13.6c-0.6-2.9-1.9-5.5-3.1-8.2c-1.3-2.8-2.7-5.7-4.6-8.2c-2.1-2.6-4.6-4.8-7.3-6.7
		c-3-2-6.3-3.4-9.6-4.8c-10-4.2-20.2-7.7-30.6-10.7c-14.4-4.2-29.1-7.3-43.8-10.2c-3-0.6-6-1.3-9-1.5c-1.4-0.1-2.8,0-4.2,0.2
		c-2.3,0.3-5.2,1.2-7.5,0.9c-0.1,0-0.2-0.1-0.2-0.1c3.6,2.5,8.2,5.9,8.2,5.9s-3.8,2.3-6.1,3.3s-4.8,1.3-6.8-0.1
		c-2.7-1.8-2.5-2.1-4.5-3.9c-3-2.7-6.2-5.1-9.4-7.6c-5.5-4.2-11-8.4-16.8-12.3c-5-3.4-10.1-6.7-15.3-9.8c-5.1-3-10.2-5.9-15.5-8.6
		c-6.2-3.2-12.5-6.1-18.9-8.8c-6.7-2.8-13.6-5.3-20.5-7.6c-7.7-2.5-15.4-4.8-23.2-6.5c-6.2-1.3-12.9-2.6-19.1-3.4
		c-4.1-0.5-7.3-1.1-10.8-2.3c-1.1-0.4-2-0.9-2.8-2.1C219.3,692.5,215,693.2,210.6,693.5z M194.6,759.3c0,0-28.1-0.8-42.2-1
		c-13-0.2-38.9-0.4-38.9-0.4s0-15.3,0.1-22.9c0.1-7.2,0.1-14.2,0.4-21.5c0-1.2,1.7-1.9,2.8-2.2c4.9-1.1,10.2-2,15.4-2.7
		c7.1-1,14.2-1.7,21.4-2.3c7-0.6,14-1.2,21-1.5c4.9-0.2,14.6-0.2,14.6-0.2L194.6,759.3z M223.1,705.2c6.2,0.5,12.3,1,18.4,1.9
		c7.8,1.2,15.6,2.8,23.3,4.6c7.6,1.8,15.2,3.8,22.6,6.3c4.8,1.6,14.1,5.7,14.1,5.7l8.2,33.2c0,0-2.2,3.3-2.7,5.1
		c-0.6,1.8-0.5,5.8-0.5,5.8s-9.9-0.8-15.3-1.4c-14.3-1.6-28.6-3.1-43-4.2c-7.7-0.6-23.2-1.2-23.2-1.2s-5.3-19.1-7.6-28.7
		c-2.1-9.2-5.4-27.7-5.4-27.7S219.4,704.9,223.1,705.2z M94.1,756.9c0,0-12.4-1.9-18.5-3.3c-6.4-1.5-13-2.6-19-5.3
		c-2.9-1.3-3.9-1.2-1.9-4.3c2.2-3.5,5.5-6.3,8.6-9c4.6-4,9.5-7.7,14.8-10.8c4.2-2.5,8.7-4.4,13.3-6.1c3.3-1.2,10.1-2.8,10.1-2.8
		L94.1,756.9z M321,733.1c4.5,2.6,9.1,5.2,13.2,8.4c2.2,1.6,6.1,5.4,6.1,5.4s3.2,6.8,4.4,10.3c1.8,5.2,4.4,15.9,4.4,15.9
		s-5.3-0.3-8-0.6c-2.7-0.3-6.8-0.7-6.8-0.7s1.1-5.2,0-7.9c-0.7-1.9-2.5-4.2-4.1-5.5c-1.5-1.2-3.5-2.5-5.1-3.3c-1.9-1-4.5-1.9-6-2
		c-1.7-0.2-5.1,0.6-5.1,0.6c-2.2-9.1-5.4-18.9-7.7-28C306.3,725.7,316.2,730.4,321,733.1z M445.5,776.2c2.5,0.1,5.1,0.3,7.6,0.6
		c3,0.4,5.9,0.8,8.8,1.5c3.3,0.8,6.5,1.9,9.7,2.9c3.2,1,6.4,2.1,9.4,3.4c2.4,1,4.5,3,7.1,3.6c1,0.2,2.1-0.4,3.1,0
		c2.1,0.8,3.5,2.9,5,4.6c1.7,1.8,5,3.3,4.6,5.7c-0.1,0.8-1.4,0.8-2.1,1.2c-1.2,0.9-2.4,1.8-3.4,2.9c-0.6,0.7-0.7,2-1.5,2.5
		c-1.2,0.8-2.9,0.4-4.4,0.4c-4.1,0.1-8.3-0.2-12.3-0.8c-2.2-0.3-4.4-0.7-6.5-1.5c-2.3-0.9-4.4-2.3-6.5-3.8
		c-4.8-3.2-9.1-7.1-13.6-10.7c-3.2-2.6-6.7-4.8-9.6-7.8c-0.9-0.9-2.2-1.7-2.3-2.9c-0.1-0.7,0.4-1.5,1-1.9c0.6-0.4,1.4-0.5,2.1-0.4
		C442.9,775.8,444.3,776.2,445.5,776.2z M34.1,857.4c0,22.9,18.6,41.5,41.5,41.5s41.5-18.6,41.5-41.5c0-22.9-18.6-41.5-41.5-41.5
		S34.1,834.4,34.1,857.4z M369.4,858.6c0,22.9,18.6,41.5,41.5,41.5c22.9,0,41.5-18.6,41.5-41.5c0-22.9-18.6-41.5-41.5-41.5
		C388,817.1,369.4,835.7,369.4,858.6z M105.7,857.4c0,16.7-13.5,30.2-30.2,30.2S45.4,874,45.4,857.4c0-16.7,13.5-30.2,30.2-30.2
		S105.7,840.7,105.7,857.4z M441.1,858.6c0,16.7-13.5,30.2-30.2,30.2c-16.7,0-30.2-13.5-30.2-30.2c0-16.7,13.5-30.2,30.2-30.2
		C427.6,828.4,441.1,841.9,441.1,858.6z"/>
</g>
</svg>
