<?xml version="1.0" encoding="utf-8"?>
<!-- Generator: Adobe Illustrator 21.1.0, SVG Export Plug-In . SVG Version: 6.00 Build 0)  -->
<svg version="1.1" id="Shape_1_3_" xmlns="http://www.w3.org/2000/svg" xmlns:xlink="http://www.w3.org/1999/xlink" x="0px" y="0px"
	 viewBox="0 0 1000 600" style="enable-background:new 0 0 1000 600;" xml:space="preserve">
<style type="text/css">
	.st0{fill:#B2B2B2;}
</style>
<g id="Shape_1">
	<g>
		<path class="st0" d="M187.8,395c-4.1,0-7.4,3.3-7.4,7.4s3.3,7.4,7.4,7.4s7.4-3.3,7.4-7.4S191.9,395,187.8,395z M177.3,380.1
			c0.7-0.3,1.5-0.7,2.2-0.9v-25.4c-7.4,1.3-14.3,4.2-20.2,8.4L177.3,380.1z M187.8,416c-1.7,0-3.1,1.4-3.1,3.1
			c0,1.7,1.4,3.1,3.1,3.1s3.1-1.4,3.1-3.1C191,417.4,189.6,416,187.8,416z M196.1,425.6v25.4c7.4-1.3,14.3-4.2,20.2-8.4l-17.9-17.9
			C197.6,425,196.9,425.3,196.1,425.6z M211,410.7c-0.3,0.8-0.6,1.5-0.9,2.2l17.9,17.9c4.2-5.9,7.1-12.7,8.4-20.2L211,410.7
			L211,410.7z M187.8,321.8c-44.5,0-80.6,36.1-80.6,80.6c0,44.5,36.1,80.6,80.6,80.6s80.6-36.1,80.6-80.6
			C268.5,357.9,232.4,321.8,187.8,321.8z M187.8,460c-31.8,0-57.6-25.8-57.6-57.6s25.8-57.6,57.6-57.6s57.6,25.8,57.6,57.6
			S219.6,460,187.8,460z M201.4,402.4c0,1.7,1.4,3.1,3.1,3.1s3.1-1.4,3.1-3.1s-1.4-3.1-3.1-3.1S201.4,400.7,201.4,402.4z
			 M187.8,388.8c1.7,0,3.1-1.4,3.1-3.1s-1.4-3.1-3.1-3.1s-3.1,1.4-3.1,3.1C184.7,387.4,186.1,388.8,187.8,388.8z M216.3,362.2
			c-5.9-4.2-12.7-7.1-20.2-8.4v25.4c0.8,0.3,1.5,0.6,2.2,0.9L216.3,362.2z M165.6,391.9L147.7,374c-4.2,5.9-7.1,12.7-8.4,20.2h25.4
			C164.9,393.3,165.2,392.6,165.6,391.9z M164.7,410.7h-25.4c1.3,7.4,4.2,14.3,8.4,20.2l17.9-17.9
			C165.2,412.2,164.9,411.5,164.7,410.7z M159.4,442.6c5.9,4.2,12.7,7.1,20.2,8.4v-25.4c-0.8-0.3-1.5-0.6-2.2-0.9L159.4,442.6z
			 M174.3,402.4c0-1.7-1.4-3.1-3.1-3.1s-3.1,1.4-3.1,3.1c0,1.7,1.4,3.1,3.1,3.1S174.3,404.1,174.3,402.4z M211,394.1h25.4
			c-1.3-7.4-4.2-14.3-8.4-20.2l-17.9,17.9C210.4,392.6,210.7,393.3,211,394.1z M789.3,390.9c-4.1,0-7.4,3.3-7.4,7.4
			c0,4.1,3.3,7.4,7.4,7.4c4.1,0,7.4-3.3,7.4-7.4C796.7,394.2,793.4,390.9,789.3,390.9z M797.6,421.4v25.4c7.4-1.3,14.3-4.2,20.2-8.4
			l-17.9-17.9C799.1,420.9,798.3,421.2,797.6,421.4z M789.3,411.8c-1.7,0-3.1,1.4-3.1,3.1s1.4,3.1,3.1,3.1s3.1-1.4,3.1-3.1
			C792.4,413.2,791,411.8,789.3,411.8z M938.7,364.4c3.9-24.4-0.1-26.5-16.3-62.4c-4.4-9.8-16-15.7-25.3-20.8
			c-48.9-26.7-171.1-43.2-179-43.4c-24.9-24.8-65.6-71.3-120.2-108.6c-10.2-6.9-46.1-8-46.1-8s-294.9-11.3-365.2,5.4
			c-6.1,1.4-10.3,0.9-15.4,3.6c-0.8,0.4-15.4,15.5-16.3,17.2c-0.8,1.6-5.6,6.8-7.2,9c-10.9,14.7-24.2,29.1-33.5,45.2
			c-4.1,7.1-6,13.8-9.9,20.8c-3.8,6.8-17.7,12-19.9,24.4c-1,6-7.8,3.7-8.1,12.7c3.1,1,3.5,2.1,7.2,2.7c-5.4,19.8-8.8,55.1-9.1,58.8
			c0,0,0,0,0,0c0,0.5-0.1,0.4,0,0c-17,5.3-15.4,35.9-17,30.4c2,8.1,7.7,18.7,9.8,27.5c1.8,7.5-4.2,10.7-4.5,18.1
			c1.3,0.8,2.6,8.9,3.6,9.9c4.3,11.8,37.9,22.5,37.9,22.5l3.3,0c-2.9-8.5-4.4-17.6-4.4-27.1c0-46.8,37.9-84.7,84.7-84.7
			s84.7,37.9,84.7,84.7c0,9.5-1.6,18.7-4.5,27.3l442.9,0.6c-4-9.9-6.2-20.7-6.2-32c0-46.8,37.9-84.7,84.7-84.7
			c46.8,0,84.7,37.9,84.7,84.7c0,11.4-2.3,22.2-6.3,32.2l7,0c0,0,52,4.8,58.8-11.8c2.8-3.1,3.8-18.9,3.6-28c0.1-9.4,2-7.6,4.5-13.6
			C943.9,371.3,937.8,367.1,938.7,364.4z M347.5,223.4c-1.7,1.2-1.5,1.8-3.6,2.7c-6.6,5-70.9-1.8-158.2-1.8
			c1.5,2.1-10.2,0.3-0.9-19.9c12.7-27.4,32-46.7,30.9-47c25.7-3.9,94.4-2.7,131.8-1.8C346.7,177.3,347,189,347.5,223.4z
			 M608.8,244.2c-1.3-1.9-5.6-4.4-6.3-6.3c-0.9-2.3,1.4-6.8,0-9.9c-3.9-8.7-16.8-14.6-29.8-14.5c-3.1,3.6-7.8,5.2-9.9,9.9
			c-0.6,1.3-2.9,13.7-2.7,14.5c0.4,1.9,1.6,2.3,1.8,3.3c2.3,0.1,1.2,0.4,0,1.2c0.1-0.5,0.1-0.9,0-1.2c-6.5-0.3-40.2,0.8-175.4-6
			c-3.7-71.2-7.1-73.5,0.9-85c79.1,0,162.7-0.9,162.7-0.9s59.5,72.6,77.7,95.8C624.5,246.6,614,244.4,608.8,244.2z M665.7,237
			c-29.4-23.6-68.1-74.4-86.8-89.5c-6.3,0,14.8-0.4,26.2-2.7c34,30,69.3,57.2,100.2,92.5C690.7,237.9,678.1,246.9,665.7,237z
			 M789.3,317.6c-44.5,0-80.6,36.1-80.6,80.6c0,44.5,36.1,80.6,80.6,80.6c44.5,0,80.6-36.1,80.6-80.6S833.8,317.6,789.3,317.6z
			 M789.3,455.8c-31.8,0-57.6-25.8-57.6-57.6s25.8-57.6,57.6-57.6s57.6,25.8,57.6,57.6S821.1,455.8,789.3,455.8z M811.5,408.8
			l17.9,17.9c4.2-5.9,7.1-12.7,8.4-20.2h-25.4C812.2,407.3,811.9,408.1,811.5,408.8z M812.5,390h25.4c-1.3-7.4-4.2-14.3-8.4-20.2
			l-17.9,17.9C811.9,388.5,812.2,389.2,812.5,390z M778.8,376c0.7-0.3,1.5-0.7,2.2-0.9v-25.4c-7.4,1.3-14.3,4.2-20.2,8.4L778.8,376z
			 M775.7,398.3c0-1.7-1.4-3.1-3.1-3.1c-1.7,0-3.1,1.4-3.1,3.1s1.4,3.1,3.1,3.1C774.3,401.4,775.7,400,775.7,398.3z M789.3,384.7
			c1.7,0,3.1-1.4,3.1-3.1c0-1.7-1.4-3.1-3.1-3.1c-1.7,0-3.1,1.4-3.1,3.1C786.1,383.3,787.5,384.7,789.3,384.7z M817.7,358.1
			c-5.9-4.2-12.7-7.1-20.2-8.4v25.4c0.8,0.3,1.5,0.6,2.2,0.9L817.7,358.1z M802.8,398.3c0,1.7,1.4,3.1,3.1,3.1
			c1.7,0,3.1-1.4,3.1-3.1c0-1.7-1.4-3.1-3.1-3.1C804.2,395.1,802.8,396.5,802.8,398.3z M767,387.7l-17.9-17.9
			c-4.2,5.9-7.1,12.7-8.4,20.2h25.4C766.4,389.2,766.7,388.5,767,387.7z M760.8,438.4c5.9,4.2,12.7,7.1,20.2,8.4v-25.4
			c-0.8-0.3-1.5-0.6-2.2-0.9L760.8,438.4z M766.1,406.6h-25.4c1.3,7.4,4.2,14.3,8.4,20.2l17.9-17.9
			C766.7,408.1,766.4,407.3,766.1,406.6z"/>
	</g>
</g>
</svg>
